<svg width="64" height="64" viewBox="0 0 64 64" fill="none" xmlns="http://www.w3.org/2000/svg">
<rect x="0.5" y="0.5" width="63" height="63" rx="9.5" fill="#120C09"/>
<rect x="0.5" y="0.5" width="63" height="63" rx="9.5" stroke="#2E2018"/>
<path d="M42.624 40.888C42.624 43.272 41.608 45.224 39.576 46.744C37.544 48.248 34.552 49 30.6 49H15.48C15.144 49 14.896 48.936 14.736 48.808C14.576 48.664 14.496 48.488 14.496 48.28C14.496 47.88 14.76 47.608 15.288 47.464L16.992 47.176C17.36 47.08 17.64 46.936 17.832 46.744C18.024 46.552 18.12 46.296 18.12 45.976V18.4C18.12 18.08 18.024 17.832 17.832 17.656C17.64 17.464 17.36 17.32 16.992 17.224L15.288 16.936C14.76 16.792 14.496 16.52 14.496 16.12C14.496 15.896 14.576 15.72 14.736 15.592C14.896 15.464 15.144 15.4 15.48 15.4H27.168C30.064 15.4 32.52 15.808 34.536 16.624C36.552 17.424 38.08 18.536 39.12 19.96C40.176 21.384 40.704 23.04 40.704 24.928C40.704 26.512 40.272 27.944 39.408 29.224C38.56 30.488 37.28 31.496 35.568 32.248C33.872 32.984 31.768 33.352 29.256 33.352L30.576 32.776C33.024 32.776 35.152 33.128 36.96 33.832C38.768 34.536 40.16 35.496 41.136 36.712C42.128 37.928 42.624 39.32 42.624 40.888ZM28.44 33.904H22.128V32.536H28.272C29.808 32.536 31.104 32.24 32.16 31.648C33.232 31.056 34.048 30.208 34.608 29.104C35.168 28 35.448 26.688 35.448 25.168C35.448 23.52 35.096 22.08 34.392 20.848C33.704 19.616 32.696 18.656 31.368 17.968C30.04 17.28 28.416 16.936 26.496 16.936H23.568V45.592C23.568 46.232 23.776 46.704 24.192 47.008C24.608 47.312 25.232 47.464 26.064 47.464H29.472C31.136 47.464 32.528 47.184 33.648 46.624C34.784 46.064 35.64 45.28 36.216 44.272C36.792 43.248 37.08 42.08 37.08 40.768C37.08 38.72 36.352 37.064 34.896 35.8C33.44 34.536 31.288 33.904 28.44 33.904Z" fill="#F0E8E0"/>
<path d="M48.848 49.336C48.352 49.336 47.904 49.216 47.504 48.976C47.104 48.72 46.784 48.384 46.544 47.968C46.304 47.552 46.184 47.104 46.184 46.624C46.184 46.112 46.304 45.648 46.544 45.232C46.784 44.816 47.104 44.488 47.504 44.248C47.904 44.008 48.352 43.888 48.848 43.888C49.344 43.888 49.792 44.008 50.192 44.248C50.592 44.488 50.904 44.816 51.128 45.232C51.368 45.648 51.488 46.112 51.488 46.624C51.488 47.104 51.368 47.552 51.128 47.968C50.904 48.384 50.592 48.72 50.192 48.976C49.792 49.216 49.344 49.336 48.848 49.336Z" fill="#D06E56"/>
</svg>
